<svg width="74" height="96" viewBox="0 0 74 96" fill="none" xmlns="http://www.w3.org/2000/svg">
<path d="M37.887 0.510031C17.419 0.0350169 0.677399 16.4916 0.677399 36.8434C0.677399 61.9137 19.6357 81.1782 30.8462 92.8636C34.224 96.3788 39.8397 96.3788 43.2176 92.8636C53.6363 82.0016 70.758 64.5843 73.112 42.0474C75.3499 20.5557 59.4948 1.00607 37.887 0.510031ZM37.0319 50.3127C29.59 50.3127 23.5625 44.2854 23.5625 36.8434C23.5625 29.4121 29.59 23.3845 37.0319 23.3845C44.4632 23.3845 50.5013 29.4121 50.5013 36.8434C50.5013 44.2854 44.4632 50.3127 37.0319 50.3127Z" fill="black"/>
</svg>
