<?xml version="1.0" encoding="utf-8"?>
<!-- Generator: Adobe Illustrator 25.4.1, SVG Export Plug-In . SVG Version: 6.00 Build 0)  -->
<svg version="1.1" id="Layer_1" xmlns="http://www.w3.org/2000/svg" xmlns:xlink="http://www.w3.org/1999/xlink" x="0px" y="0px"
	 viewBox="0 0 393.3 84.4" style="enable-background:new 0 0 393.3 84.4;" xml:space="preserve">
<style type="text/css">
	.st0{fill:#FF4B55;}
</style>
<path class="st0" d="M18.6,70.9c5,0,9.7-2,13.1-5.6c3.5-3.6,5.5-8.4,5.5-13.4c0-5-2-9.8-5.5-13.4c-3.5-3.5-8.2-5.6-13.1-5.6
	c-5,0-9.7,2-13.1,5.6c-7.3,7.5-7.3,19.4,0,26.8C8.9,68.8,13.6,70.9,18.6,70.9z"/>
<path class="st0" d="M71.9,29.9c1.8,1.9,4.2,2.9,6.8,2.9H98c5,0,9.7,2,13.1,5.6c3.5,3.6,5.5,8.4,5.5,13.4c0,5-2,9.8-5.5,13.4
	c-3.4,3.5-8.2,5.6-13.1,5.6H82.7c-5,0-9.7-2-13.1-5.6c-3.5-3.6-5.5-8.4-5.5-13.4v-3.9c0-2.6-1-5.1-2.8-7C59.5,39.1,57,38,54.5,38
	h-3.8c-5,0-9.7-2-13.1-5.6c-7.3-7.5-7.3-19.4,0-26.8C41,2.1,45.7,0,50.7,0c5,0,9.7,2,13.1,5.6c3.5,3.6,5.5,8.4,5.5,13.4V23
	C69.2,25.5,70.2,28,71.9,29.9z"/>
<path class="st0" d="M322.8,33H312V19.3h-6.5v39.9c0,1.7,0.4,3.5,1.3,4.9c1.2,1.5,2.5,2.9,4,4.1c1.7,1.1,3.6,1.7,5.6,1.7h5.8v-6.1
	h-5.8c-0.4,0-0.8-0.1-1.2-0.2c-1.4-0.8-2.5-2-3.3-3.4c-0.1-0.3-0.1-0.7-0.2-1V39.4h11L322.8,33z"/>
<path class="st0" d="M350.6,59.7c-1.2,1.7-4.1,3.6-5.6,4.2c-0.2,0-0.3,0.2-0.7,0.2h-7c-0.5,0-0.7-0.2-1-0.2
	c-1.4-0.8-2.5-1.9-3.3-3.2c-0.1-0.3-0.1-0.6-0.2-0.9v-1.4c0-0.3,0.1-0.6,0.2-0.9c0.8-1.4,1.9-2.6,3.3-3.4c0.3-0.1,0.7-0.1,1-0.2
	h13.3L350.6,59.7z M357.6,69.8l-0.7-6.6V43.7c0.1-1.7-0.4-3.5-1.3-4.9c-1.2-1.5-2.5-2.8-4-3.9c-1.7-1.1-3.6-1.7-5.6-1.7h-7.6
	c-2,0-4,0.5-5.6,1.5c-2.3,1.9-4.2,4.4-5.5,7.1l6,1.9l1-1.5c0.8-1,2.3-2.9,3.8-2.9h7.8c0.3,0,0.7,0,1,0.2c1.3,0.7,2.5,1.8,3.3,3.1
	c0.1,0.3,0.2,0.7,0.2,1v4.1H337c-2,0-3.9,0.5-5.6,1.5c-1.4,1.2-2.7,2.5-3.8,3.9c-0.9,1.4-1.4,3.1-1.3,4.8v1.5
	c-0.1,1.7,0.4,3.4,1.3,4.8c1.1,1.4,2.4,2.7,3.8,3.9c1.7,1.1,3.6,1.7,5.6,1.7h7.3c2.3,0,4.8-3.4,6.5-4.9l2,4.4h4.8L357.6,69.8z"/>
<path class="st0" d="M386.3,59.1c-1.7,1.9-3.7,3.6-6,4.8h-7.1c-0.3,0-0.7,0-1-0.2c-1.5-0.8-2.7-2.1-3.5-3.6
	c-0.2-0.2-0.2-0.3-0.2-0.9V43.9c0-0.5,0-0.7,0.2-0.8c0.8-1.5,2-2.7,3.5-3.6c0.2-0.2,0.5-0.2,1-0.2h6.5c1.7,0,5.7,3.7,6.6,4.9
	L386.3,59.1z M393.3,33.5h-4.8l-2,4.8c-1.7-1.5-4.2-5.1-6.6-5.1H373c-2,0-4,0.6-5.7,1.7c-1.5,1.2-2.8,2.6-4,4.1
	c-1,1.5-1.4,3.2-1.3,4.9v15.8c-0.1,1.7,0.4,3.4,1.3,4.9c1.2,1.5,2.5,2.9,4,4.1c1.7,1.1,3.6,1.7,5.7,1.7h6.8c2.3,0,4.7-3.2,6.3-4.8
	v8.8c0,1-2.7,3.2-3.7,3.7c-0.3,0.2-0.7,0.2-1,0.2h-8.3c-1.8,0-4.2-3.1-5-4.8l-6,2c1.3,2.8,3.1,5.2,5.5,7.1c1.7,1.1,3.6,1.7,5.7,1.7
	h8.3c2,0,4-0.6,5.7-1.7c1.5-1.2,2.8-2.6,4-4.1c1-1.5,1.4-3.2,1.3-4.9V40.5L393.3,33.5z"/>
<path class="st0" d="M267.4,59.7c-1.2,1.7-4.1,3.6-5.6,4.2c-0.2,0-0.3,0.2-0.7,0.2h-7c-0.5,0-0.7-0.2-1-0.2
	c-1.4-0.8-2.5-1.9-3.3-3.2c-0.1-0.3-0.1-0.6-0.2-0.9v-1.4c0-0.3,0.1-0.6,0.2-0.9c0.8-1.4,1.9-2.6,3.3-3.4c0.3-0.1,0.7-0.1,1-0.2
	h13.3L267.4,59.7z M274.5,69.8l-0.7-6.6V43.7c0.1-1.7-0.4-3.5-1.3-4.9c-1.2-1.5-2.5-2.8-4-3.9c-1.7-1.1-3.6-1.7-5.6-1.7h-7.6
	c-2,0-3.9,0.5-5.6,1.5c-2.3,1.9-4.2,4.4-5.5,7.1l6,1.9l1-1.5c0.8-1,2.3-2.9,3.8-2.9h7.8c0.3,0,0.7,0,1,0.2c1.3,0.7,2.5,1.8,3.3,3.1
	c0.1,0.3,0.2,0.7,0.2,1v4.1h-13.3c-2,0-3.9,0.5-5.6,1.5c-1.4,1.2-2.7,2.5-3.8,3.9c-0.9,1.4-1.4,3.1-1.3,4.8v1.5
	c-0.1,1.7,0.4,3.4,1.3,4.8c1.1,1.4,2.4,2.7,3.8,3.9c1.7,1.1,3.6,1.7,5.6,1.7h7.3c2.3,0,4.8-3.4,6.5-4.9l2,4.4h4.8L274.5,69.8z
	 M237.5,69.8l-0.8-6.4v-44h-6.3v45l0.7,5.4L237.5,69.8z M215.6,59.7c-1.2,1.7-4.1,3.6-5.6,4.2c-0.2,0-0.3,0.2-0.7,0.2h-7
	c-0.5,0-0.7-0.2-1-0.2c-1.4-0.8-2.5-1.9-3.3-3.2c-0.1-0.3-0.1-0.6-0.2-0.9v-1.4c0-0.3,0.1-0.6,0.2-0.9c0.8-1.4,1.9-2.6,3.3-3.4
	c0.3-0.1,0.7-0.1,1-0.2h13.3L215.6,59.7z M222.6,69.8l-0.7-6.6V43.7c0-1.7-0.4-3.5-1.3-4.9c-1.2-1.5-2.5-2.8-4-3.9
	c-1.7-1.1-3.6-1.7-5.6-1.7h-7.6c-2,0-4,0.5-5.6,1.5c-2.3,1.9-4.2,4.4-5.5,7.1l6,1.9l1-1.5c0.8-1,2.3-2.9,3.8-2.9h7.8
	c0.3,0,0.7,0,1,0.2c1.3,0.7,2.5,1.8,3.3,3.1c0.1,0.3,0.2,0.7,0.2,1v4.1h-13.3c-2,0-3.9,0.5-5.6,1.5c-1.4,1.2-2.7,2.5-3.8,3.9
	c-0.9,1.4-1.4,3.1-1.3,4.8v1.5c-0.1,1.7,0.4,3.4,1.3,4.8c1.1,1.4,2.4,2.7,3.8,3.9c1.7,1.1,3.6,1.7,5.6,1.7h7.3
	c2.3,0,4.8-3.4,6.5-4.9l2,4.4h4.8L222.6,69.8z"/>
<path class="st0" d="M309.2,33.1h-15.9c-2.3,0-4.8,3.4-6.5,4.9l-2-4.6H280l0.5,6.8v29.6h6.5v-26c0.8-1.2,4.8-4.6,6.5-4.6h15.8
	L309.2,33.1z"/>
<path class="st0" d="M185.5,69.8V19.3h-8.3l-13.3,27.5l-13.3-27.5h-8.5v50.6h6.6V29.6l12.8,27.2h4.5L179,29.6v40.3H185.5z"/>
<path class="st0" d="M200.4,26.4c2.3,0,4.1-1.7,4.2-4c0-2.3-1.7-4.1-4-4.2s-4.1,1.7-4.2,4c0,0,0,0.1,0,0.1
	C196.4,24.5,198.2,26.3,200.4,26.4z"/>
<path class="st0" d="M213.7,26.4c2.3,0,4.1-1.7,4.2-4c0-2.3-1.7-4.1-4-4.2s-4.1,1.7-4.2,4c0,0,0,0.1,0,0.1
	C209.7,24.5,211.5,26.3,213.7,26.4z"/>
<path class="st0" d="M346.9,21.8c0,2.3-1.8,4.2-4.1,4.2c0,0-0.1,0-0.1,0c-2.2-0.1-3.9-2-3.8-4.2c0,0,0,0,0,0c0-2.2,1.6-4,3.8-4.1
	c2.2-0.1,4,1.7,4.1,3.9C346.9,21.6,346.9,21.7,346.9,21.8z M350.9,21.8c-0.2-4.4-3.9-7.9-8.3-7.8c-4.2,0.1-7.6,3.5-7.8,7.8
	c-0.2,4.3,3.2,7.8,7.5,8c0.2,0,0.4,0,0.5,0c4.3,0.1,8-3.3,8.1-7.6C350.9,22,350.9,21.9,350.9,21.8L350.9,21.8z"/>
</svg>
