<svg width="57" height="81" viewBox="0 0 57 81" fill="none" xmlns="http://www.w3.org/2000/svg">
<ellipse cx="28.5" cy="28.5" rx="22.5" ry="21.5" fill="white"/>
<path d="M28.6819 0.360107C15.1979 0.360107 0.233887 10.1561 0.233887 28.9711C0.233887 47.7851 23.8279 80.5101 28.6819 80.5101C33.5369 80.5101 56.5899 48.3701 56.5899 28.2661C56.5899 1.33911 28.6819 0.360107 28.6819 0.360107ZM28.4099 48.7151C17.6389 48.7151 8.90889 39.9831 8.90889 29.2131C8.90889 18.4411 17.6409 9.71011 28.4099 9.71011C39.1809 9.71011 47.9119 18.4411 47.9119 29.2131C47.9119 39.9841 39.1819 48.7151 28.4099 48.7151Z" fill="#275DD0"/>
<path d="M35.9101 19.639C35.7931 18.836 35.0311 18.179 34.2191 18.179H22.6051C21.7921 18.179 21.0311 18.836 20.9121 19.639C20.9121 19.639 19.7361 27.58 19.7361 29.641C19.7361 31.701 20.3621 33.825 20.3621 33.825C20.5911 34.603 21.4451 35.241 22.2571 35.241H34.5681C35.3801 35.241 36.2271 34.602 36.4501 33.821C36.4501 33.821 37.0891 31.585 37.0891 29.612C37.0881 27.638 35.9101 19.639 35.9101 19.639ZM25.1041 20.078C25.1041 19.672 25.4371 19.34 25.8421 19.34H30.9831C31.3881 19.34 31.7211 19.672 31.7211 20.078V20.459C31.7211 20.865 31.3881 21.197 30.9831 21.197H25.8421C25.4371 21.197 25.1041 20.864 25.1041 20.459V20.078ZM23.1891 33.064C22.5391 33.064 22.0131 32.538 22.0131 31.889C22.0131 31.241 22.5381 30.714 23.1891 30.714C23.8371 30.714 24.3641 31.24 24.3641 31.889C24.3641 32.538 23.8381 33.064 23.1891 33.064ZM33.6351 33.064C32.9871 33.064 32.4601 32.538 32.4601 31.889C32.4601 31.241 32.9861 30.714 33.6351 30.714C34.2841 30.714 34.8111 31.24 34.8111 31.889C34.8111 32.538 34.2841 33.064 33.6351 33.064ZM33.5521 29.438H23.2721C22.4601 29.438 21.8661 28.777 21.9511 27.97L22.3901 23.826C22.4751 23.018 23.2081 22.358 24.0211 22.358H32.8021C33.6151 22.358 34.3481 23.019 34.4331 23.826L34.8721 27.97C34.9591 28.777 34.3631 29.438 33.5521 29.438Z" fill="#275DD0"/>
<path d="M34.0819 39.5191C34.3269 39.7251 34.9679 39.8931 35.5059 39.8911C36.0429 39.8891 36.1459 39.5911 35.7319 39.2281L33.5099 37.2841C33.0959 36.9221 32.3149 36.6231 31.7729 36.6211C31.2309 36.6191 31.0749 36.8721 31.4259 37.1841C31.7789 37.4961 31.6149 37.7511 31.0669 37.7511H25.7579C25.2089 37.7511 25.0459 37.4961 25.3989 37.1841C25.7509 36.8721 25.5939 36.6191 25.0519 36.6211C24.5099 36.6231 23.7279 36.9211 23.3149 37.2841L21.0929 39.2281C20.6789 39.5901 20.7809 39.8881 21.3189 39.8911C21.8569 39.8931 22.4979 39.7251 22.7429 39.5191C22.9869 39.3131 23.6379 39.1441 24.1879 39.1441H32.6369C33.1879 39.1441 33.8379 39.3131 34.0819 39.5191Z" fill="#275DD0"/>
</svg>
