<svg class="svg-icon" style="width: 1em; height: 1em;vertical-align: middle;overflow: hidden;" viewBox="0 0 1024 1024" version="1.1" xmlns="http://www.w3.org/2000/svg">
    <defs>
        <linearGradient id="gradient" x1="0%" y1="0%" x2="100%" y2="100%">
            <stop offset="0%" style="stop-color:#FFFF00; stop-opacity:1" />
            <stop offset="100%" style="stop-color:#FFA500; stop-opacity:1" />
        </linearGradient>
    </defs>
    <path d="M512 85.333333C341.333333 85.333333 170.666667 106.666667 170.666667 256v405.333333c0 82.346667 66.986667 149.333333 149.333333 149.333334l-64 64v21.333333h95.146667l85.333333-85.333333H597.333333l85.333334 85.333333h85.333333v-21.333333l-64-64c82.346667 0 149.333333-66.986667 149.333333-149.333334V256c0-149.333333-152.746667-170.666667-341.333333-170.666667z m-192 640c-35.413333 0-64-28.586667-64-64s28.586667-64 64-64 64 28.586667 64 64-28.586667 64-64 64z m149.333333-298.666666H256v-170.666667h213.333333v170.666667z m85.333334 0v-170.666667h213.333333v170.666667H554.666667z m149.333333 298.666666c-35.413333 0-64-28.586667-64-64s28.586667-64 64-64 64 28.586667 64 64-28.586667 64-64 64z" fill="url(#gradient)" />
</svg>
